<mxfile host="Electron" modified="2023-12-21T13:43:57.843Z" agent="Mozilla/5.0 (Macintosh; Intel Mac OS X 10_15_7) AppleWebKit/537.36 (KHTML, like Gecko) draw.io/21.6.8 Chrome/114.0.5735.289 Electron/25.5.0 Safari/537.36" etag="C88UsxsmXgy4Mmp_PhWD" version="21.6.8" type="device">
  <diagram name="Page-1" id="FUHpSXOXwNN_cW7EnL5g">
    <mxGraphModel dx="1242" dy="797" grid="1" gridSize="10" guides="1" tooltips="1" connect="1" arrows="1" fold="1" page="1" pageScale="1" pageWidth="1169" pageHeight="827" math="0" shadow="0">
      <root>
        <mxCell id="0" />
        <mxCell id="1" parent="0" />
        <mxCell id="fkI6FKsjwC6vqZN-vsiQ-2" value="AWS Cloud" style="points=[[0,0],[0.25,0],[0.5,0],[0.75,0],[1,0],[1,0.25],[1,0.5],[1,0.75],[1,1],[0.75,1],[0.5,1],[0.25,1],[0,1],[0,0.75],[0,0.5],[0,0.25]];outlineConnect=0;gradientColor=none;html=1;whiteSpace=wrap;fontSize=12;fontStyle=0;container=1;pointerEvents=0;collapsible=0;recursiveResize=0;shape=mxgraph.aws4.group;grIcon=mxgraph.aws4.group_aws_cloud_alt;strokeColor=#232F3E;fillColor=none;verticalAlign=top;align=left;spacingLeft=30;fontColor=#232F3E;dashed=0;" parent="1" vertex="1">
          <mxGeometry x="50" y="94" width="990" height="756" as="geometry" />
        </mxCell>
        <mxCell id="fkI6FKsjwC6vqZN-vsiQ-7" style="edgeStyle=orthogonalEdgeStyle;rounded=0;orthogonalLoop=1;jettySize=auto;html=1;" parent="fkI6FKsjwC6vqZN-vsiQ-2" source="fkI6FKsjwC6vqZN-vsiQ-1" target="fkI6FKsjwC6vqZN-vsiQ-6" edge="1">
          <mxGeometry relative="1" as="geometry" />
        </mxCell>
        <mxCell id="fkI6FKsjwC6vqZN-vsiQ-26" value="New Object&lt;br&gt;Events" style="edgeLabel;html=1;align=center;verticalAlign=middle;resizable=0;points=[];" parent="fkI6FKsjwC6vqZN-vsiQ-7" vertex="1" connectable="0">
          <mxGeometry x="0.2642" y="2" relative="1" as="geometry">
            <mxPoint y="-18" as="offset" />
          </mxGeometry>
        </mxCell>
        <mxCell id="fkI6FKsjwC6vqZN-vsiQ-24" style="edgeStyle=orthogonalEdgeStyle;rounded=0;orthogonalLoop=1;jettySize=auto;html=1;" parent="fkI6FKsjwC6vqZN-vsiQ-2" source="fkI6FKsjwC6vqZN-vsiQ-1" target="fkI6FKsjwC6vqZN-vsiQ-23" edge="1">
          <mxGeometry relative="1" as="geometry">
            <Array as="points">
              <mxPoint x="233" y="126" />
              <mxPoint x="233" y="236" />
              <mxPoint x="337" y="236" />
            </Array>
          </mxGeometry>
        </mxCell>
        <mxCell id="fkI6FKsjwC6vqZN-vsiQ-25" value="Object Tagging &lt;br&gt;Events" style="edgeLabel;html=1;align=center;verticalAlign=middle;resizable=0;points=[];" parent="fkI6FKsjwC6vqZN-vsiQ-24" vertex="1" connectable="0">
          <mxGeometry x="0.186" y="-2" relative="1" as="geometry">
            <mxPoint as="offset" />
          </mxGeometry>
        </mxCell>
        <mxCell id="fkI6FKsjwC6vqZN-vsiQ-28" style="edgeStyle=orthogonalEdgeStyle;rounded=0;orthogonalLoop=1;jettySize=auto;html=1;entryX=0;entryY=0.5;entryDx=0;entryDy=0;entryPerimeter=0;curved=1;" parent="fkI6FKsjwC6vqZN-vsiQ-2" source="fkI6FKsjwC6vqZN-vsiQ-1" target="fkI6FKsjwC6vqZN-vsiQ-4" edge="1">
          <mxGeometry relative="1" as="geometry">
            <Array as="points">
              <mxPoint x="50" y="126" />
              <mxPoint x="50" y="305" />
            </Array>
          </mxGeometry>
        </mxCell>
        <mxCell id="fkI6FKsjwC6vqZN-vsiQ-29" style="edgeStyle=orthogonalEdgeStyle;rounded=0;orthogonalLoop=1;jettySize=auto;html=1;entryX=0;entryY=0.5;entryDx=0;entryDy=0;entryPerimeter=0;curved=1;" parent="fkI6FKsjwC6vqZN-vsiQ-2" source="fkI6FKsjwC6vqZN-vsiQ-1" target="fkI6FKsjwC6vqZN-vsiQ-5" edge="1">
          <mxGeometry relative="1" as="geometry">
            <Array as="points">
              <mxPoint x="30" y="126" />
              <mxPoint x="30" y="483" />
            </Array>
          </mxGeometry>
        </mxCell>
        <mxCell id="fkI6FKsjwC6vqZN-vsiQ-1" value="Input" style="sketch=0;points=[[0,0,0],[0.25,0,0],[0.5,0,0],[0.75,0,0],[1,0,0],[0,1,0],[0.25,1,0],[0.5,1,0],[0.75,1,0],[1,1,0],[0,0.25,0],[0,0.5,0],[0,0.75,0],[1,0.25,0],[1,0.5,0],[1,0.75,0]];outlineConnect=0;fontColor=#232F3E;gradientColor=#60A337;gradientDirection=north;fillColor=#277116;strokeColor=#ffffff;dashed=0;verticalLabelPosition=bottom;verticalAlign=top;align=center;html=1;fontSize=12;fontStyle=0;aspect=fixed;shape=mxgraph.aws4.resourceIcon;resIcon=mxgraph.aws4.s3;" parent="fkI6FKsjwC6vqZN-vsiQ-2" vertex="1">
          <mxGeometry x="109" y="87" width="78" height="78" as="geometry" />
        </mxCell>
        <mxCell id="fkI6FKsjwC6vqZN-vsiQ-4" value="Clean" style="sketch=0;points=[[0,0,0],[0.25,0,0],[0.5,0,0],[0.75,0,0],[1,0,0],[0,1,0],[0.25,1,0],[0.5,1,0],[0.75,1,0],[1,1,0],[0,0.25,0],[0,0.5,0],[0,0.75,0],[1,0.25,0],[1,0.5,0],[1,0.75,0]];outlineConnect=0;fontColor=#232F3E;gradientColor=#60A337;gradientDirection=north;fillColor=#277116;strokeColor=#ffffff;dashed=0;verticalLabelPosition=bottom;verticalAlign=top;align=center;html=1;fontSize=12;fontStyle=0;aspect=fixed;shape=mxgraph.aws4.resourceIcon;resIcon=mxgraph.aws4.s3;" parent="fkI6FKsjwC6vqZN-vsiQ-2" vertex="1">
          <mxGeometry x="103" y="266" width="78" height="78" as="geometry" />
        </mxCell>
        <mxCell id="fkI6FKsjwC6vqZN-vsiQ-5" value="Dirty" style="sketch=0;points=[[0,0,0],[0.25,0,0],[0.5,0,0],[0.75,0,0],[1,0,0],[0,1,0],[0.25,1,0],[0.5,1,0],[0.75,1,0],[1,1,0],[0,0.25,0],[0,0.5,0],[0,0.75,0],[1,0.25,0],[1,0.5,0],[1,0.75,0]];outlineConnect=0;fontColor=#232F3E;gradientColor=#60A337;gradientDirection=north;fillColor=#277116;strokeColor=#ffffff;dashed=0;verticalLabelPosition=bottom;verticalAlign=top;align=center;html=1;fontSize=12;fontStyle=0;aspect=fixed;shape=mxgraph.aws4.resourceIcon;resIcon=mxgraph.aws4.s3;" parent="fkI6FKsjwC6vqZN-vsiQ-2" vertex="1">
          <mxGeometry x="103" y="444" width="78" height="78" as="geometry" />
        </mxCell>
        <mxCell id="fkI6FKsjwC6vqZN-vsiQ-21" style="edgeStyle=orthogonalEdgeStyle;rounded=0;orthogonalLoop=1;jettySize=auto;html=1;entryX=0;entryY=0.5;entryDx=0;entryDy=0;entryPerimeter=0;" parent="fkI6FKsjwC6vqZN-vsiQ-2" source="fkI6FKsjwC6vqZN-vsiQ-6" target="fkI6FKsjwC6vqZN-vsiQ-16" edge="1">
          <mxGeometry relative="1" as="geometry">
            <Array as="points">
              <mxPoint x="413" y="126" />
              <mxPoint x="413" y="358" />
            </Array>
          </mxGeometry>
        </mxCell>
        <mxCell id="fkI6FKsjwC6vqZN-vsiQ-22" style="edgeStyle=orthogonalEdgeStyle;rounded=0;orthogonalLoop=1;jettySize=auto;html=1;" parent="fkI6FKsjwC6vqZN-vsiQ-2" source="fkI6FKsjwC6vqZN-vsiQ-6" target="fkI6FKsjwC6vqZN-vsiQ-9" edge="1">
          <mxGeometry relative="1" as="geometry" />
        </mxCell>
        <mxCell id="fkI6FKsjwC6vqZN-vsiQ-6" value="SNS Topic" style="sketch=0;points=[[0,0,0],[0.25,0,0],[0.5,0,0],[0.75,0,0],[1,0,0],[0,1,0],[0.25,1,0],[0.5,1,0],[0.75,1,0],[1,1,0],[0,0.25,0],[0,0.5,0],[0,0.75,0],[1,0.25,0],[1,0.5,0],[1,0.75,0]];outlineConnect=0;fontColor=#232F3E;gradientColor=#FF4F8B;gradientDirection=north;fillColor=#BC1356;strokeColor=#ffffff;dashed=0;verticalLabelPosition=bottom;verticalAlign=top;align=center;html=1;fontSize=12;fontStyle=0;aspect=fixed;shape=mxgraph.aws4.resourceIcon;resIcon=mxgraph.aws4.sns;" parent="fkI6FKsjwC6vqZN-vsiQ-2" vertex="1">
          <mxGeometry x="293" y="87" width="78" height="78" as="geometry" />
        </mxCell>
        <mxCell id="fkI6FKsjwC6vqZN-vsiQ-13" value="" style="group" parent="fkI6FKsjwC6vqZN-vsiQ-2" vertex="1" connectable="0">
          <mxGeometry x="443" y="12" width="530" height="230" as="geometry" />
        </mxCell>
        <mxCell id="fkI6FKsjwC6vqZN-vsiQ-8" value="AV Scanner 1" style="fillColor=none;strokeColor=#5A6C86;dashed=1;verticalAlign=top;fontStyle=0;fontColor=#5A6C86;whiteSpace=wrap;html=1;" parent="fkI6FKsjwC6vqZN-vsiQ-13" vertex="1">
          <mxGeometry width="530" height="200" as="geometry" />
        </mxCell>
        <mxCell id="fkI6FKsjwC6vqZN-vsiQ-9" value="SQS Queue" style="sketch=0;points=[[0,0,0],[0.25,0,0],[0.5,0,0],[0.75,0,0],[1,0,0],[0,1,0],[0.25,1,0],[0.5,1,0],[0.75,1,0],[1,1,0],[0,0.25,0],[0,0.5,0],[0,0.75,0],[1,0.25,0],[1,0.5,0],[1,0.75,0]];outlineConnect=0;fontColor=#232F3E;gradientColor=#FF4F8B;gradientDirection=north;fillColor=#BC1356;strokeColor=#ffffff;dashed=0;verticalLabelPosition=bottom;verticalAlign=top;align=center;html=1;fontSize=12;fontStyle=0;aspect=fixed;shape=mxgraph.aws4.resourceIcon;resIcon=mxgraph.aws4.sqs;" parent="fkI6FKsjwC6vqZN-vsiQ-13" vertex="1">
          <mxGeometry x="46" y="75" width="78" height="78" as="geometry" />
        </mxCell>
        <mxCell id="fkI6FKsjwC6vqZN-vsiQ-10" value="Auto Scaling group" style="points=[[0,0],[0.25,0],[0.5,0],[0.75,0],[1,0],[1,0.25],[1,0.5],[1,0.75],[1,1],[0.75,1],[0.5,1],[0.25,1],[0,1],[0,0.75],[0,0.5],[0,0.25]];outlineConnect=0;gradientColor=none;html=1;whiteSpace=wrap;fontSize=12;fontStyle=0;container=1;pointerEvents=0;collapsible=0;recursiveResize=0;shape=mxgraph.aws4.groupCenter;grIcon=mxgraph.aws4.group_auto_scaling_group;grStroke=1;strokeColor=#D86613;fillColor=none;verticalAlign=top;align=center;fontColor=#D86613;dashed=1;spacingTop=25;" parent="fkI6FKsjwC6vqZN-vsiQ-13" vertex="1">
          <mxGeometry x="180" y="25" width="330" height="160" as="geometry" />
        </mxCell>
        <mxCell id="fkI6FKsjwC6vqZN-vsiQ-11" value="EC2 Instance" style="sketch=0;points=[[0,0,0],[0.25,0,0],[0.5,0,0],[0.75,0,0],[1,0,0],[0,1,0],[0.25,1,0],[0.5,1,0],[0.75,1,0],[1,1,0],[0,0.25,0],[0,0.5,0],[0,0.75,0],[1,0.25,0],[1,0.5,0],[1,0.75,0]];outlineConnect=0;fontColor=#232F3E;gradientColor=#F78E04;gradientDirection=north;fillColor=#D05C17;strokeColor=#ffffff;dashed=0;verticalLabelPosition=bottom;verticalAlign=top;align=center;html=1;fontSize=12;fontStyle=0;aspect=fixed;shape=mxgraph.aws4.resourceIcon;resIcon=mxgraph.aws4.ec2;" parent="fkI6FKsjwC6vqZN-vsiQ-10" vertex="1">
          <mxGeometry x="120" y="50" width="78" height="78" as="geometry" />
        </mxCell>
        <mxCell id="fkI6FKsjwC6vqZN-vsiQ-12" style="edgeStyle=orthogonalEdgeStyle;rounded=0;orthogonalLoop=1;jettySize=auto;html=1;" parent="fkI6FKsjwC6vqZN-vsiQ-13" source="fkI6FKsjwC6vqZN-vsiQ-9" target="fkI6FKsjwC6vqZN-vsiQ-11" edge="1">
          <mxGeometry relative="1" as="geometry" />
        </mxCell>
        <mxCell id="fkI6FKsjwC6vqZN-vsiQ-20" value="..." style="text;html=1;strokeColor=none;fillColor=none;align=center;verticalAlign=middle;whiteSpace=wrap;rounded=0;" parent="fkI6FKsjwC6vqZN-vsiQ-13" vertex="1">
          <mxGeometry x="240" y="200" width="60" height="30" as="geometry" />
        </mxCell>
        <mxCell id="fkI6FKsjwC6vqZN-vsiQ-14" value="" style="group" parent="fkI6FKsjwC6vqZN-vsiQ-2" vertex="1" connectable="0">
          <mxGeometry x="443" y="244" width="530" height="200" as="geometry" />
        </mxCell>
        <mxCell id="fkI6FKsjwC6vqZN-vsiQ-15" value="AV Scanner n" style="fillColor=none;strokeColor=#5A6C86;dashed=1;verticalAlign=top;fontStyle=0;fontColor=#5A6C86;whiteSpace=wrap;html=1;" parent="fkI6FKsjwC6vqZN-vsiQ-14" vertex="1">
          <mxGeometry width="530" height="200" as="geometry" />
        </mxCell>
        <mxCell id="fkI6FKsjwC6vqZN-vsiQ-16" value="SQS Queue" style="sketch=0;points=[[0,0,0],[0.25,0,0],[0.5,0,0],[0.75,0,0],[1,0,0],[0,1,0],[0.25,1,0],[0.5,1,0],[0.75,1,0],[1,1,0],[0,0.25,0],[0,0.5,0],[0,0.75,0],[1,0.25,0],[1,0.5,0],[1,0.75,0]];outlineConnect=0;fontColor=#232F3E;gradientColor=#FF4F8B;gradientDirection=north;fillColor=#BC1356;strokeColor=#ffffff;dashed=0;verticalLabelPosition=bottom;verticalAlign=top;align=center;html=1;fontSize=12;fontStyle=0;aspect=fixed;shape=mxgraph.aws4.resourceIcon;resIcon=mxgraph.aws4.sqs;" parent="fkI6FKsjwC6vqZN-vsiQ-14" vertex="1">
          <mxGeometry x="46" y="75" width="78" height="78" as="geometry" />
        </mxCell>
        <mxCell id="fkI6FKsjwC6vqZN-vsiQ-17" value="Auto Scaling group" style="points=[[0,0],[0.25,0],[0.5,0],[0.75,0],[1,0],[1,0.25],[1,0.5],[1,0.75],[1,1],[0.75,1],[0.5,1],[0.25,1],[0,1],[0,0.75],[0,0.5],[0,0.25]];outlineConnect=0;gradientColor=none;html=1;whiteSpace=wrap;fontSize=12;fontStyle=0;container=1;pointerEvents=0;collapsible=0;recursiveResize=0;shape=mxgraph.aws4.groupCenter;grIcon=mxgraph.aws4.group_auto_scaling_group;grStroke=1;strokeColor=#D86613;fillColor=none;verticalAlign=top;align=center;fontColor=#D86613;dashed=1;spacingTop=25;" parent="fkI6FKsjwC6vqZN-vsiQ-14" vertex="1">
          <mxGeometry x="180" y="25" width="330" height="160" as="geometry" />
        </mxCell>
        <mxCell id="fkI6FKsjwC6vqZN-vsiQ-18" value="EC2 Instance" style="sketch=0;points=[[0,0,0],[0.25,0,0],[0.5,0,0],[0.75,0,0],[1,0,0],[0,1,0],[0.25,1,0],[0.5,1,0],[0.75,1,0],[1,1,0],[0,0.25,0],[0,0.5,0],[0,0.75,0],[1,0.25,0],[1,0.5,0],[1,0.75,0]];outlineConnect=0;fontColor=#232F3E;gradientColor=#F78E04;gradientDirection=north;fillColor=#D05C17;strokeColor=#ffffff;dashed=0;verticalLabelPosition=bottom;verticalAlign=top;align=center;html=1;fontSize=12;fontStyle=0;aspect=fixed;shape=mxgraph.aws4.resourceIcon;resIcon=mxgraph.aws4.ec2;" parent="fkI6FKsjwC6vqZN-vsiQ-17" vertex="1">
          <mxGeometry x="120" y="50" width="78" height="78" as="geometry" />
        </mxCell>
        <mxCell id="fkI6FKsjwC6vqZN-vsiQ-19" style="edgeStyle=orthogonalEdgeStyle;rounded=0;orthogonalLoop=1;jettySize=auto;html=1;" parent="fkI6FKsjwC6vqZN-vsiQ-14" source="fkI6FKsjwC6vqZN-vsiQ-16" target="fkI6FKsjwC6vqZN-vsiQ-18" edge="1">
          <mxGeometry relative="1" as="geometry" />
        </mxCell>
        <mxCell id="fkI6FKsjwC6vqZN-vsiQ-23" value="Result Aggregator&lt;br&gt;Lambda Function" style="outlineConnect=0;dashed=0;verticalLabelPosition=bottom;verticalAlign=top;align=center;html=1;shape=mxgraph.aws3.lambda_function;fillColor=#F58534;gradientColor=none;" parent="fkI6FKsjwC6vqZN-vsiQ-2" vertex="1">
          <mxGeometry x="297.5" y="320" width="69" height="72" as="geometry" />
        </mxCell>
        <mxCell id="uZAG1N18WrT6cAqU7nmQ-1" value="Frontend Application" style="fillColor=none;strokeColor=#5A6C86;dashed=1;verticalAlign=top;fontStyle=0;fontColor=#5A6C86;whiteSpace=wrap;html=1;" vertex="1" parent="fkI6FKsjwC6vqZN-vsiQ-2">
          <mxGeometry x="20" y="566" width="950" height="174" as="geometry" />
        </mxCell>
        <mxCell id="uZAG1N18WrT6cAqU7nmQ-4" style="edgeStyle=orthogonalEdgeStyle;rounded=0;orthogonalLoop=1;jettySize=auto;html=1;" edge="1" parent="fkI6FKsjwC6vqZN-vsiQ-2" source="uZAG1N18WrT6cAqU7nmQ-2" target="uZAG1N18WrT6cAqU7nmQ-3">
          <mxGeometry relative="1" as="geometry" />
        </mxCell>
        <mxCell id="uZAG1N18WrT6cAqU7nmQ-2" value="Amazon CloudFront" style="sketch=0;points=[[0,0,0],[0.25,0,0],[0.5,0,0],[0.75,0,0],[1,0,0],[0,1,0],[0.25,1,0],[0.5,1,0],[0.75,1,0],[1,1,0],[0,0.25,0],[0,0.5,0],[0,0.75,0],[1,0.25,0],[1,0.5,0],[1,0.75,0]];outlineConnect=0;fontColor=#232F3E;gradientColor=#945DF2;gradientDirection=north;fillColor=#5A30B5;strokeColor=#ffffff;dashed=0;verticalLabelPosition=bottom;verticalAlign=top;align=center;html=1;fontSize=12;fontStyle=0;aspect=fixed;shape=mxgraph.aws4.resourceIcon;resIcon=mxgraph.aws4.cloudfront;" vertex="1" parent="fkI6FKsjwC6vqZN-vsiQ-2">
          <mxGeometry x="160" y="618" width="78" height="78" as="geometry" />
        </mxCell>
        <mxCell id="uZAG1N18WrT6cAqU7nmQ-3" value="Static Website" style="sketch=0;points=[[0,0,0],[0.25,0,0],[0.5,0,0],[0.75,0,0],[1,0,0],[0,1,0],[0.25,1,0],[0.5,1,0],[0.75,1,0],[1,1,0],[0,0.25,0],[0,0.5,0],[0,0.75,0],[1,0.25,0],[1,0.5,0],[1,0.75,0]];outlineConnect=0;fontColor=#232F3E;gradientColor=#60A337;gradientDirection=north;fillColor=#277116;strokeColor=#ffffff;dashed=0;verticalLabelPosition=bottom;verticalAlign=top;align=center;html=1;fontSize=12;fontStyle=0;aspect=fixed;shape=mxgraph.aws4.resourceIcon;resIcon=mxgraph.aws4.s3;" vertex="1" parent="fkI6FKsjwC6vqZN-vsiQ-2">
          <mxGeometry x="360" y="618" width="78" height="78" as="geometry" />
        </mxCell>
        <mxCell id="uZAG1N18WrT6cAqU7nmQ-5" value="Amazon Cognito UserPool" style="sketch=0;points=[[0,0,0],[0.25,0,0],[0.5,0,0],[0.75,0,0],[1,0,0],[0,1,0],[0.25,1,0],[0.5,1,0],[0.75,1,0],[1,1,0],[0,0.25,0],[0,0.5,0],[0,0.75,0],[1,0.25,0],[1,0.5,0],[1,0.75,0]];outlineConnect=0;fontColor=#232F3E;gradientColor=#F54749;gradientDirection=north;fillColor=#C7131F;strokeColor=#ffffff;dashed=0;verticalLabelPosition=bottom;verticalAlign=top;align=center;html=1;fontSize=12;fontStyle=0;aspect=fixed;shape=mxgraph.aws4.resourceIcon;resIcon=mxgraph.aws4.cognito;" vertex="1" parent="fkI6FKsjwC6vqZN-vsiQ-2">
          <mxGeometry x="550" y="618" width="78" height="78" as="geometry" />
        </mxCell>
        <mxCell id="uZAG1N18WrT6cAqU7nmQ-6" value="Amazon Cognito Identity Pool" style="sketch=0;points=[[0,0,0],[0.25,0,0],[0.5,0,0],[0.75,0,0],[1,0,0],[0,1,0],[0.25,1,0],[0.5,1,0],[0.75,1,0],[1,1,0],[0,0.25,0],[0,0.5,0],[0,0.75,0],[1,0.25,0],[1,0.5,0],[1,0.75,0]];outlineConnect=0;fontColor=#232F3E;gradientColor=#F54749;gradientDirection=north;fillColor=#C7131F;strokeColor=#ffffff;dashed=0;verticalLabelPosition=bottom;verticalAlign=top;align=center;html=1;fontSize=12;fontStyle=0;aspect=fixed;shape=mxgraph.aws4.resourceIcon;resIcon=mxgraph.aws4.cognito;" vertex="1" parent="fkI6FKsjwC6vqZN-vsiQ-2">
          <mxGeometry x="750" y="618" width="78" height="78" as="geometry" />
        </mxCell>
      </root>
    </mxGraphModel>
  </diagram>
</mxfile>
